<svg width="55" height="23" viewBox="0 0 55 23" fill="none" xmlns="http://www.w3.org/2000/svg">
<path d="M33.9455 0.371155V8.56252L23.0215 20.4807L23.0165 20.4845L21.314 22.3422V14.147L33.9455 0.371155Z" fill="url(#paint0_linear)"/>
<path d="M54.77 0.245056V22.9576H42.1387V14.0209L54.77 0.245056Z" fill="url(#paint1_linear)"/>
<path d="M34.2903 0.000976562L32.6477 1.10182L32.6427 1.10564C32.6261 1.11431 32.611 1.12459 32.5978 1.13622H32.5928L1.03397 22.3084H1.02947C1.01449 22.3195 1.00451 22.3271 0.999517 22.3271V22.3313C0.992452 22.3347 0.985772 22.3385 0.979546 22.3428L0.000976562 23.0002L2.5173 20.2596C2.52728 20.2443 2.54226 20.2328 2.55224 20.2175L21.0901 0.000976562H34.2903Z" fill="url(#paint2_linear)"/>
<path d="M34.2898 0.000976562L33.9453 0.371748L21.3138 14.1476L13.2007 23.0002H0L1.02849 22.3084H1.03349L32.5923 1.13622L33.9453 0.230316L34.2898 0.000976562Z" fill="url(#paint3_linear)"/>
<path d="M55.0001 0.000366211L54.7704 0.153259L52.7334 1.52205L52.7284 1.52588L52.7084 1.53696C52.7034 1.54498 52.6984 1.54498 52.6934 1.54881C52.6884 1.55263 52.6884 1.55263 52.6835 1.55263V1.55646L52.6435 1.57939C52.626 1.58827 52.6091 1.59852 52.5936 1.60997L42.1391 8.62403L33.9461 14.1206L22.393 21.8647L22.353 21.8953C22.3393 21.9065 22.3242 21.9167 22.3081 21.9259L21.3146 22.591L20.7104 23L21.3146 22.3425L23.0171 20.4849L23.0221 20.481L33.9461 8.56249L41.7996 0.000366211H55.0001Z" fill="url(#paint4_linear)"/>
<path d="M55 0.000366211L54.7704 0.244998L42.1391 14.0208L33.9461 22.9576L33.9111 22.9996H20.71L21.3141 22.5906L22.3925 21.8644L33.9456 14.1202L42.1386 8.62365L52.593 1.60958L52.643 1.579L52.648 1.57519L52.6829 1.55607V1.55225C52.6879 1.55225 52.6879 1.54843 52.6929 1.54843L54.7699 0.15288L55 0.000366211Z" fill="url(#paint5_linear)"/>
<g style="mix-blend-mode:multiply" opacity="0.24">
<g style="mix-blend-mode:multiply" opacity="0.24">
<path d="M33.9455 0.371155V7.65279L21.314 14.9382V14.147L33.9455 0.371155Z" fill="black"/>
</g>
</g>
<g style="mix-blend-mode:multiply" opacity="0.24">
<g style="mix-blend-mode:multiply" opacity="0.24">
<path d="M54.77 0.245056V7.44258L54.6951 7.48462L42.1387 14.728V14.0209L54.77 0.245056Z" fill="black"/>
</g>
</g>
<g style="mix-blend-mode:overlay">
<g style="mix-blend-mode:overlay">
<path d="M32.5921 1.13562L1.03331 22.3078C1.02832 22.3116 1.02832 22.3078 1.02832 22.3078C1.16812 22.2008 1.60747 21.8797 2.28648 21.3866C3.13024 20.7865 4.3185 19.9111 5.77639 18.8944C7.23425 17.8776 8.92678 16.6774 10.7641 15.4199C12.6014 14.1543 14.5735 12.8245 16.5506 11.4905C17.5392 10.8292 18.5327 10.1679 19.5113 9.51772C20.4899 8.86754 21.4584 8.23379 22.3921 7.61838C24.2643 6.38758 26.0417 5.26724 27.5495 4.28909C29.0573 3.31094 30.3454 2.53079 31.2341 1.96852L32.5921 1.13562Z" fill="white"/>
</g>
</g>
<g style="mix-blend-mode:overlay">
<g style="mix-blend-mode:overlay">
<path d="M51.3749 2.35072C51.969 1.9876 52.3884 1.73149 52.5931 1.60956L42.1382 8.62364L33.9452 14.1202L22.3921 21.8644C22.5568 21.742 22.9662 21.4439 23.5654 21.0039C24.3742 20.4271 25.5125 19.5862 26.9155 18.6077C28.3184 17.6292 29.936 16.4786 31.7035 15.2669C33.4709 14.0552 35.3631 12.7747 37.2553 11.4942C38.2089 10.8555 39.1625 10.2214 40.1012 9.59834C41.0398 8.97529 41.9734 8.36371 42.8721 7.77507C44.6695 6.59395 46.382 5.51604 47.8299 4.57956C49.2777 3.64307 50.5211 2.89006 51.3749 2.35072Z" fill="white"/>
</g>
</g>
<g style="mix-blend-mode:screen" opacity="0.4">
<g style="mix-blend-mode:screen" opacity="0.4">
<path d="M52.693 1.54846C52.693 1.55228 52.688 1.55228 52.683 1.5561L52.6431 1.57904C52.6555 1.56906 52.6685 1.56009 52.683 1.55228C52.688 1.55228 52.688 1.54846 52.693 1.54846Z" fill="white"/>
</g>
</g>
<g style="mix-blend-mode:multiply" opacity="0.25">
<g style="mix-blend-mode:multiply" opacity="0.25">
<path d="M34.2898 0.000976562C34.175 0.138582 34.0601 0.272365 33.9453 0.406149C33.2264 1.25433 32.4974 2.09564 31.7735 2.94038C30.9347 3.91891 30.076 4.8898 29.2172 5.86068C27.5097 7.80195 25.7873 9.73607 24.0498 11.663L21.4286 14.5489L21.3138 14.6751V14.1476L13.2007 23.0002H0C2.19678 22.9276 4.39856 22.8966 6.60034 22.8435L13.0259 22.7594C13.8547 21.8229 14.6985 20.8937 15.5323 19.9614L18.1484 17.0794L20.7846 14.2007L23.4357 11.3339C25.2081 9.42658 27.0005 7.52812 28.8128 5.6386C29.7115 4.69409 30.6102 3.74652 31.5289 2.81004C32.4475 1.87356 33.3562 0.930961 34.2898 0.000976562Z" fill="black"/>
</g>
</g>
<g style="mix-blend-mode:multiply" opacity="0.25">
<g style="mix-blend-mode:multiply" opacity="0.25">
<path d="M55 0.000366211C54.9251 0.0921033 54.8502 0.183837 54.7704 0.271752C54.0215 1.16619 53.2476 2.05298 52.4837 2.93977C51.6499 3.9183 50.7862 4.88919 49.9324 5.86007C48.2252 7.80134 46.501 9.73546 44.7603 11.6624L42.1391 14.5483V14.0208L33.9461 22.9576L33.9111 22.9996H20.71C22.9117 22.927 25.1085 22.896 27.3103 22.8429L33.7409 22.7588C34.5647 21.8223 35.4084 20.8931 36.2422 19.9608L38.8634 17.0787L41.4945 14.2001L44.1457 11.3333C45.9181 9.42597 47.7104 7.52751 49.5228 5.63799C50.4212 4.69348 51.3199 3.74591 52.2436 2.80943C53.1572 1.86951 54.0659 0.930351 55 0.000366211Z" fill="black"/>
</g>
</g>
<g style="mix-blend-mode:multiply" opacity="0.25">
<g style="mix-blend-mode:multiply" opacity="0.25">
<path d="M54.77 6.44879V22.9576H42.1387C43.1921 22.9079 44.2456 22.8774 45.299 22.843C46.3525 22.8086 47.401 22.7856 48.4544 22.7589C50.4363 22.7168 52.4134 22.6939 54.3955 22.6748C54.3806 21.3939 54.3706 20.1138 54.3756 18.8295C54.3806 17.4534 54.3905 16.0774 54.4205 14.7013C54.4505 13.3252 54.4804 11.9526 54.5403 10.577C54.5603 9.88893 54.6002 9.2009 54.6402 8.51288C54.6552 8.16886 54.6751 7.82905 54.6951 7.48504C54.7151 7.14102 54.74 6.79242 54.77 6.44879Z" fill="black"/>
</g>
</g>
<g style="mix-blend-mode:overlay">
<g style="mix-blend-mode:overlay">
<path d="M51.1057 0.000384944C49.5531 0.0611609 48.0004 0.088296 46.4527 0.134165C44.9499 0.172388 43.4521 0.18768 41.9543 0.214437C41.2203 1.05154 40.4914 1.88864 39.7425 2.71427L37.4209 5.29054L35.0793 7.85536L32.7228 10.4125L30.3363 12.9544L27.9248 15.4772C27.116 16.3181 26.3171 17.1625 25.4934 17.9923C24.6696 18.8221 23.8607 19.6589 23.022 20.4807L33.946 8.56212L41.7995 0L51.1057 0.000384944Z" fill="white"/>
</g>
</g>
<g style="mix-blend-mode:overlay">
<g style="mix-blend-mode:overlay">
<path d="M32.1332 0.000366211C30.2909 0.069169 28.4486 0.0997457 26.6113 0.153259L21.2592 0.237737C20.5352 1.05916 19.7963 1.87333 19.0674 2.69552L16.7657 5.23702L14.4441 7.77164L12.1076 10.2944L9.751 12.8057L7.3645 15.3013C6.56567 16.135 5.77682 16.9683 4.95803 17.7901C4.14921 18.6153 3.3404 19.4414 2.5166 20.2593C2.52659 20.2441 2.54157 20.2326 2.55155 20.2173L21.0894 0.000745322L32.1332 0.000366211Z" fill="white"/>
</g>
</g>
<defs>
<linearGradient id="paint0_linear" x1="27.6297" y1="19.1783" x2="27.6297" y2="7.05035" gradientUnits="userSpaceOnUse">
<stop stop-color="#A8F600"/>
</linearGradient>
<linearGradient id="paint1_linear" x1="48.4544" y1="22.7532" x2="48.4544" y2="6.80898" gradientUnits="userSpaceOnUse">
<stop offset="1" stop-color="#A8F600"/>
</linearGradient>
<linearGradient id="paint2_linear" x1="13.4424" y1="10.1437" x2="24.4257" y2="-7.25461" gradientUnits="userSpaceOnUse">
<stop offset="1" stop-color="#A8F700"/>
</linearGradient>
<linearGradient id="paint3_linear" x1="0" y1="11.5006" x2="34.2898" y2="11.5006" gradientUnits="userSpaceOnUse">
<stop offset="1" stop-color="#A8F600"/>
</linearGradient>
<linearGradient id="paint4_linear" x1="37.5811" y1="9.89019" x2="46.5626" y2="-8.34384" gradientUnits="userSpaceOnUse">
<stop stop-color="#A8F600"/>
</linearGradient>
<linearGradient id="paint5_linear" x1="20.71" y1="11.5" x2="55" y2="11.5" gradientUnits="userSpaceOnUse">
<stop offset="1" stop-color="#A8F600"/>
</linearGradient>
</defs>
</svg>
